<svg width="1200" height="630" xmlns="http://www.w3.org/2000/svg">
  <defs>
    <linearGradient id="bg" x1="0%" y1="0%" x2="100%" y2="100%">
      <stop offset="0%" style="stop-color:#0f0f0f"/>
      <stop offset="100%" style="stop-color:#1a1a2e"/>
    </linearGradient>
    <linearGradient id="accent" x1="0%" y1="0%" x2="100%" y2="0%">
      <stop offset="0%" style="stop-color:#6366f1"/>
      <stop offset="100%" style="stop-color:#8b5cf6"/>
    </linearGradient>
  </defs>
  
  <!-- Background -->
  <rect width="1200" height="630" fill="url(#bg)"/>
  
  <!-- Grid pattern -->
  <g opacity="0.05">
    <line x1="0" y1="0" x2="0" y2="630" stroke="#fff" stroke-width="1"/>
    <line x1="100" y1="0" x2="100" y2="630" stroke="#fff" stroke-width="1"/>
    <line x1="200" y1="0" x2="200" y2="630" stroke="#fff" stroke-width="1"/>
    <line x1="300" y1="0" x2="300" y2="630" stroke="#fff" stroke-width="1"/>
    <line x1="400" y1="0" x2="400" y2="630" stroke="#fff" stroke-width="1"/>
    <line x1="500" y1="0" x2="500" y2="630" stroke="#fff" stroke-width="1"/>
    <line x1="600" y1="0" x2="600" y2="630" stroke="#fff" stroke-width="1"/>
    <line x1="700" y1="0" x2="700" y2="630" stroke="#fff" stroke-width="1"/>
    <line x1="800" y1="0" x2="800" y2="630" stroke="#fff" stroke-width="1"/>
    <line x1="900" y1="0" x2="900" y2="630" stroke="#fff" stroke-width="1"/>
    <line x1="1000" y1="0" x2="1000" y2="630" stroke="#fff" stroke-width="1"/>
    <line x1="1100" y1="0" x2="1100" y2="630" stroke="#fff" stroke-width="1"/>
    <line x1="1200" y1="0" x2="1200" y2="630" stroke="#fff" stroke-width="1"/>
  </g>
  
  <!-- Accent glow -->
  <ellipse cx="900" cy="315" rx="400" ry="300" fill="#6366f1" opacity="0.1"/>
  
  <!-- Logo icon (building) -->
  <g transform="translate(80, 180)">
    <rect x="20" y="0" width="60" height="120" rx="4" fill="url(#accent)"/>
    <rect x="0" y="40" width="25" height="80" rx="4" fill="#6366f1" opacity="0.7"/>
    <rect x="75" y="30" width="25" height="90" rx="4" fill="#8b5cf6" opacity="0.7"/>
    <!-- Windows -->
    <rect x="35" y="15" width="12" height="10" rx="1" fill="#1a1a2e"/>
    <rect x="55" y="15" width="12" height="10" rx="1" fill="#1a1a2e"/>
    <rect x="35" y="35" width="12" height="10" rx="1" fill="#1a1a2e"/>
    <rect x="55" y="35" width="12" height="10" rx="1" fill="#1a1a2e"/>
    <rect x="35" y="55" width="12" height="10" rx="1" fill="#1a1a2e"/>
    <rect x="55" y="55" width="12" height="10" rx="1" fill="#1a1a2e"/>
    <rect x="35" y="75" width="12" height="10" rx="1" fill="#1a1a2e"/>
    <rect x="55" y="75" width="12" height="10" rx="1" fill="#1a1a2e"/>
  </g>
  
  <!-- Brand name -->
  <text x="200" y="260" font-family="system-ui, -apple-system, sans-serif" font-size="72" font-weight="700" fill="#ffffff">Ownly</text>
  <text x="410" y="260" font-family="system-ui, -apple-system, sans-serif" font-size="72" font-weight="300" fill="#a1a1aa">Starter Kit</text>
  
  <!-- Tagline -->
  <text x="80" y="330" font-family="system-ui, -apple-system, sans-serif" font-size="32" fill="#a1a1aa">Ship Your SaaS in Days, Not Months</text>
  
  <!-- Tech stack badges -->
  <g transform="translate(80, 380)">
    <rect x="0" y="0" width="130" height="40" rx="20" fill="#1e1e2e" stroke="#3f3f46" stroke-width="1"/>
    <text x="65" y="26" font-family="system-ui, sans-serif" font-size="16" fill="#ffffff" text-anchor="middle">Next.js 14</text>
    
    <rect x="145" y="0" width="90" height="40" rx="20" fill="#1e1e2e" stroke="#3f3f46" stroke-width="1"/>
    <text x="190" y="26" font-family="system-ui, sans-serif" font-size="16" fill="#ffffff" text-anchor="middle">tRPC</text>
    
    <rect x="250" y="0" width="100" height="40" rx="20" fill="#1e1e2e" stroke="#3f3f46" stroke-width="1"/>
    <text x="300" y="26" font-family="system-ui, sans-serif" font-size="16" fill="#ffffff" text-anchor="middle">Prisma</text>
    
    <rect x="365" y="0" width="120" height="40" rx="20" fill="#1e1e2e" stroke="#3f3f46" stroke-width="1"/>
    <text x="425" y="26" font-family="system-ui, sans-serif" font-size="16" fill="#ffffff" text-anchor="middle">TypeScript</text>
  </g>
  
  <!-- Feature highlights -->
  <g transform="translate(80, 470)">
    <circle cx="10" cy="10" r="6" fill="#22c55e"/>
    <text x="30" y="16" font-family="system-ui, sans-serif" font-size="18" fill="#ffffff">24 UI Components</text>
    
    <circle cx="230" cy="10" r="6" fill="#22c55e"/>
    <text x="250" y="16" font-family="system-ui, sans-serif" font-size="18" fill="#ffffff">15 Database Models</text>
    
    <circle cx="460" cy="10" r="6" fill="#22c55e"/>
    <text x="480" y="16" font-family="system-ui, sans-serif" font-size="18" fill="#ffffff">Demo Mode Ready</text>
  </g>
  
  <!-- Price badge -->
  <g transform="translate(950, 450)">
    <rect x="0" y="0" width="170" height="80" rx="12" fill="url(#accent)"/>
    <text x="85" y="35" font-family="system-ui, sans-serif" font-size="14" fill="#ffffff" text-anchor="middle" opacity="0.9">ONE-TIME</text>
    <text x="85" y="65" font-family="system-ui, sans-serif" font-size="36" font-weight="700" fill="#ffffff" text-anchor="middle">$49</text>
  </g>
  
  <!-- Bottom border accent -->
  <rect x="0" y="620" width="1200" height="10" fill="url(#accent)"/>
</svg>
